<mxfile host="app.diagrams.net" modified="2023-12-25T19:34:16.526Z" agent="Mozilla/5.0 (Macintosh; Intel Mac OS X 10_15_7) AppleWebKit/605.1.15 (KHTML, like Gecko) Version/17.2 Safari/605.1.15" etag="CdmjicGmrHWv55_W3jYH" version="22.1.11" type="device">
  <diagram name="Страница — 1" id="BfXXUxiIAd01Yg0TkIi8">
    <mxGraphModel dx="984" dy="695" grid="1" gridSize="10" guides="1" tooltips="1" connect="1" arrows="1" fold="1" page="1" pageScale="1" pageWidth="827" pageHeight="1169" math="0" shadow="0">
      <root>
        <mxCell id="0" />
        <mxCell id="1" parent="0" />
        <mxCell id="MluJIr57iyrZP8SSuak7-4" value="" style="whiteSpace=wrap;html=1;aspect=fixed;strokeColor=default;" parent="1" vertex="1">
          <mxGeometry x="440" y="40" width="870" height="870" as="geometry" />
        </mxCell>
        <mxCell id="2qqS1FkIt9U3KMilBtJh-5" style="rounded=0;orthogonalLoop=1;jettySize=auto;html=1;entryX=0;entryY=0.5;entryDx=0;entryDy=0;" edge="1" parent="1" source="MluJIr57iyrZP8SSuak7-13" target="2qqS1FkIt9U3KMilBtJh-3">
          <mxGeometry relative="1" as="geometry" />
        </mxCell>
        <mxCell id="2qqS1FkIt9U3KMilBtJh-10" style="rounded=0;orthogonalLoop=1;jettySize=auto;html=1;entryX=0;entryY=0.5;entryDx=0;entryDy=0;" edge="1" parent="1" source="MluJIr57iyrZP8SSuak7-13" target="2qqS1FkIt9U3KMilBtJh-9">
          <mxGeometry relative="1" as="geometry" />
        </mxCell>
        <mxCell id="2qqS1FkIt9U3KMilBtJh-12" style="rounded=0;orthogonalLoop=1;jettySize=auto;html=1;" edge="1" parent="1" source="MluJIr57iyrZP8SSuak7-13" target="2qqS1FkIt9U3KMilBtJh-11">
          <mxGeometry relative="1" as="geometry" />
        </mxCell>
        <mxCell id="2qqS1FkIt9U3KMilBtJh-14" style="rounded=0;orthogonalLoop=1;jettySize=auto;html=1;" edge="1" parent="1" source="MluJIr57iyrZP8SSuak7-13" target="2qqS1FkIt9U3KMilBtJh-13">
          <mxGeometry relative="1" as="geometry" />
        </mxCell>
        <mxCell id="2qqS1FkIt9U3KMilBtJh-16" style="rounded=0;orthogonalLoop=1;jettySize=auto;html=1;" edge="1" parent="1" source="MluJIr57iyrZP8SSuak7-13" target="2qqS1FkIt9U3KMilBtJh-15">
          <mxGeometry relative="1" as="geometry" />
        </mxCell>
        <mxCell id="2qqS1FkIt9U3KMilBtJh-18" style="rounded=0;orthogonalLoop=1;jettySize=auto;html=1;" edge="1" parent="1" source="MluJIr57iyrZP8SSuak7-13" target="2qqS1FkIt9U3KMilBtJh-17">
          <mxGeometry relative="1" as="geometry" />
        </mxCell>
        <mxCell id="2qqS1FkIt9U3KMilBtJh-20" style="rounded=0;orthogonalLoop=1;jettySize=auto;html=1;" edge="1" parent="1" source="MluJIr57iyrZP8SSuak7-13" target="2qqS1FkIt9U3KMilBtJh-19">
          <mxGeometry relative="1" as="geometry" />
        </mxCell>
        <mxCell id="MluJIr57iyrZP8SSuak7-13" value="Сотрудник кинотеатра" style="shape=umlActor;verticalLabelPosition=bottom;verticalAlign=top;html=1;outlineConnect=0;" parent="1" vertex="1">
          <mxGeometry x="280" y="370" width="50" height="80" as="geometry" />
        </mxCell>
        <mxCell id="MluJIr57iyrZP8SSuak7-23" value="Система для управления кинотеатром" style="rounded=0;whiteSpace=wrap;html=1;" parent="1" vertex="1">
          <mxGeometry x="440" y="40" width="190" height="30" as="geometry" />
        </mxCell>
        <mxCell id="2qqS1FkIt9U3KMilBtJh-3" value="отметить занятые места на конкретном сеансе" style="ellipse;whiteSpace=wrap;html=1;" vertex="1" parent="1">
          <mxGeometry x="510" y="160" width="130" height="80" as="geometry" />
        </mxCell>
        <mxCell id="2qqS1FkIt9U3KMilBtJh-7" value="продать билет на сеанс с выбором места" style="ellipse;whiteSpace=wrap;html=1;" vertex="1" parent="1">
          <mxGeometry x="510" y="250" width="120" height="80" as="geometry" />
        </mxCell>
        <mxCell id="2qqS1FkIt9U3KMilBtJh-8" style="rounded=0;orthogonalLoop=1;jettySize=auto;html=1;entryX=0.014;entryY=0.59;entryDx=0;entryDy=0;entryPerimeter=0;" edge="1" parent="1" target="2qqS1FkIt9U3KMilBtJh-7">
          <mxGeometry relative="1" as="geometry">
            <mxPoint x="320" y="410" as="sourcePoint" />
          </mxGeometry>
        </mxCell>
        <mxCell id="2qqS1FkIt9U3KMilBtJh-9" value="вернуть билет до начала сеанса" style="ellipse;whiteSpace=wrap;html=1;" vertex="1" parent="1">
          <mxGeometry x="620" y="460" width="120" height="80" as="geometry" />
        </mxCell>
        <mxCell id="2qqS1FkIt9U3KMilBtJh-11" value="добавить фильм" style="ellipse;whiteSpace=wrap;html=1;" vertex="1" parent="1">
          <mxGeometry x="470" y="580" width="120" height="80" as="geometry" />
        </mxCell>
        <mxCell id="2qqS1FkIt9U3KMilBtJh-13" value="добавить сеанс" style="ellipse;whiteSpace=wrap;html=1;" vertex="1" parent="1">
          <mxGeometry x="815" y="410" width="120" height="80" as="geometry" />
        </mxCell>
        <mxCell id="2qqS1FkIt9U3KMilBtJh-15" value="посмотреть доступные на конкретный сеанс места" style="ellipse;whiteSpace=wrap;html=1;" vertex="1" parent="1">
          <mxGeometry x="680" y="280" width="120" height="80" as="geometry" />
        </mxCell>
        <mxCell id="2qqS1FkIt9U3KMilBtJh-17" value="редактировать фильм" style="ellipse;whiteSpace=wrap;html=1;" vertex="1" parent="1">
          <mxGeometry x="680" y="600" width="120" height="80" as="geometry" />
        </mxCell>
        <mxCell id="2qqS1FkIt9U3KMilBtJh-19" value="редактировать сеанс" style="ellipse;whiteSpace=wrap;html=1;" vertex="1" parent="1">
          <mxGeometry x="850" y="330" width="120" height="80" as="geometry" />
        </mxCell>
        <mxCell id="2qqS1FkIt9U3KMilBtJh-27" style="rounded=0;orthogonalLoop=1;jettySize=auto;html=1;dashed=1;" edge="1" parent="1" source="2qqS1FkIt9U3KMilBtJh-21" target="2qqS1FkIt9U3KMilBtJh-17">
          <mxGeometry relative="1" as="geometry" />
        </mxCell>
        <mxCell id="2qqS1FkIt9U3KMilBtJh-29" value="include" style="edgeLabel;html=1;align=center;verticalAlign=middle;resizable=0;points=[];" vertex="1" connectable="0" parent="2qqS1FkIt9U3KMilBtJh-27">
          <mxGeometry x="-0.117" y="-1" relative="1" as="geometry">
            <mxPoint y="1" as="offset" />
          </mxGeometry>
        </mxCell>
        <mxCell id="2qqS1FkIt9U3KMilBtJh-21" value="поменять название" style="ellipse;whiteSpace=wrap;html=1;" vertex="1" parent="1">
          <mxGeometry x="850" y="515" width="110" height="85" as="geometry" />
        </mxCell>
        <mxCell id="2qqS1FkIt9U3KMilBtJh-22" value="поменять длительность" style="ellipse;whiteSpace=wrap;html=1;" vertex="1" parent="1">
          <mxGeometry x="850" y="650" width="120" height="80" as="geometry" />
        </mxCell>
        <mxCell id="2qqS1FkIt9U3KMilBtJh-25" value="include" style="edgeStyle=orthogonalEdgeStyle;rounded=0;orthogonalLoop=1;jettySize=auto;html=1;entryX=0.5;entryY=0;entryDx=0;entryDy=0;dashed=1;" edge="1" parent="1" source="2qqS1FkIt9U3KMilBtJh-23" target="2qqS1FkIt9U3KMilBtJh-19">
          <mxGeometry relative="1" as="geometry" />
        </mxCell>
        <mxCell id="2qqS1FkIt9U3KMilBtJh-23" value="поменять время" style="ellipse;whiteSpace=wrap;html=1;" vertex="1" parent="1">
          <mxGeometry x="850" y="170" width="120" height="80" as="geometry" />
        </mxCell>
        <mxCell id="2qqS1FkIt9U3KMilBtJh-26" value="include" style="rounded=0;orthogonalLoop=1;jettySize=auto;html=1;entryX=1;entryY=0.5;entryDx=0;entryDy=0;dashed=1;" edge="1" parent="1" source="2qqS1FkIt9U3KMilBtJh-24" target="2qqS1FkIt9U3KMilBtJh-19">
          <mxGeometry relative="1" as="geometry" />
        </mxCell>
        <mxCell id="2qqS1FkIt9U3KMilBtJh-24" value="поменять количество мест" style="ellipse;whiteSpace=wrap;html=1;" vertex="1" parent="1">
          <mxGeometry x="1020" y="230" width="120" height="80" as="geometry" />
        </mxCell>
        <mxCell id="2qqS1FkIt9U3KMilBtJh-28" style="rounded=0;orthogonalLoop=1;jettySize=auto;html=1;entryX=0.725;entryY=0.988;entryDx=0;entryDy=0;entryPerimeter=0;dashed=1;" edge="1" parent="1" source="2qqS1FkIt9U3KMilBtJh-22" target="2qqS1FkIt9U3KMilBtJh-17">
          <mxGeometry relative="1" as="geometry" />
        </mxCell>
        <mxCell id="2qqS1FkIt9U3KMilBtJh-30" value="include" style="edgeLabel;html=1;align=center;verticalAlign=middle;resizable=0;points=[];" vertex="1" connectable="0" parent="2qqS1FkIt9U3KMilBtJh-28">
          <mxGeometry x="0.0004" y="-4" relative="1" as="geometry">
            <mxPoint as="offset" />
          </mxGeometry>
        </mxCell>
        <mxCell id="2qqS1FkIt9U3KMilBtJh-44" value="include" style="edgeStyle=orthogonalEdgeStyle;rounded=0;orthogonalLoop=1;jettySize=auto;html=1;dashed=1;" edge="1" parent="1" source="2qqS1FkIt9U3KMilBtJh-32" target="2qqS1FkIt9U3KMilBtJh-11">
          <mxGeometry relative="1" as="geometry" />
        </mxCell>
        <mxCell id="2qqS1FkIt9U3KMilBtJh-32" value="добавить id фильма" style="ellipse;whiteSpace=wrap;html=1;" vertex="1" parent="1">
          <mxGeometry x="470" y="700" width="120" height="80" as="geometry" />
        </mxCell>
        <mxCell id="2qqS1FkIt9U3KMilBtJh-45" style="rounded=0;orthogonalLoop=1;jettySize=auto;html=1;dashed=1;" edge="1" parent="1" source="2qqS1FkIt9U3KMilBtJh-33" target="2qqS1FkIt9U3KMilBtJh-11">
          <mxGeometry relative="1" as="geometry" />
        </mxCell>
        <mxCell id="2qqS1FkIt9U3KMilBtJh-47" value="include" style="edgeLabel;html=1;align=center;verticalAlign=middle;resizable=0;points=[];" vertex="1" connectable="0" parent="2qqS1FkIt9U3KMilBtJh-45">
          <mxGeometry x="0.1364" y="3" relative="1" as="geometry">
            <mxPoint y="1" as="offset" />
          </mxGeometry>
        </mxCell>
        <mxCell id="2qqS1FkIt9U3KMilBtJh-33" value="добавить название фильма" style="ellipse;whiteSpace=wrap;html=1;" vertex="1" parent="1">
          <mxGeometry x="670" y="690" width="120" height="80" as="geometry" />
        </mxCell>
        <mxCell id="2qqS1FkIt9U3KMilBtJh-34" value="добавить длительность фильма" style="ellipse;whiteSpace=wrap;html=1;" vertex="1" parent="1">
          <mxGeometry x="610" y="780" width="120" height="80" as="geometry" />
        </mxCell>
        <mxCell id="2qqS1FkIt9U3KMilBtJh-40" style="rounded=0;orthogonalLoop=1;jettySize=auto;html=1;entryX=1;entryY=0.5;entryDx=0;entryDy=0;dashed=1;" edge="1" parent="1" source="2qqS1FkIt9U3KMilBtJh-35" target="2qqS1FkIt9U3KMilBtJh-13">
          <mxGeometry relative="1" as="geometry" />
        </mxCell>
        <mxCell id="2qqS1FkIt9U3KMilBtJh-42" value="include" style="edgeLabel;html=1;align=center;verticalAlign=middle;resizable=0;points=[];" vertex="1" connectable="0" parent="2qqS1FkIt9U3KMilBtJh-40">
          <mxGeometry x="-0.1304" y="2" relative="1" as="geometry">
            <mxPoint as="offset" />
          </mxGeometry>
        </mxCell>
        <mxCell id="2qqS1FkIt9U3KMilBtJh-35" value="добавить id сеанса" style="ellipse;whiteSpace=wrap;html=1;" vertex="1" parent="1">
          <mxGeometry x="1000" y="390" width="120" height="80" as="geometry" />
        </mxCell>
        <mxCell id="2qqS1FkIt9U3KMilBtJh-36" value="добавить время сеанса" style="ellipse;whiteSpace=wrap;html=1;" vertex="1" parent="1">
          <mxGeometry x="1090" y="480" width="120" height="80" as="geometry" />
        </mxCell>
        <mxCell id="2qqS1FkIt9U3KMilBtJh-38" value="include" style="rounded=0;orthogonalLoop=1;jettySize=auto;html=1;dashed=1;" edge="1" parent="1" source="2qqS1FkIt9U3KMilBtJh-37" target="2qqS1FkIt9U3KMilBtJh-13">
          <mxGeometry relative="1" as="geometry" />
        </mxCell>
        <mxCell id="2qqS1FkIt9U3KMilBtJh-37" value="добавить количество мест на сеансе" style="ellipse;whiteSpace=wrap;html=1;" vertex="1" parent="1">
          <mxGeometry x="1000" y="560" width="120" height="80" as="geometry" />
        </mxCell>
        <mxCell id="2qqS1FkIt9U3KMilBtJh-41" style="rounded=0;orthogonalLoop=1;jettySize=auto;html=1;entryX=0.958;entryY=0.725;entryDx=0;entryDy=0;entryPerimeter=0;dashed=1;" edge="1" parent="1" source="2qqS1FkIt9U3KMilBtJh-36" target="2qqS1FkIt9U3KMilBtJh-13">
          <mxGeometry relative="1" as="geometry" />
        </mxCell>
        <mxCell id="2qqS1FkIt9U3KMilBtJh-43" value="include" style="edgeLabel;html=1;align=center;verticalAlign=middle;resizable=0;points=[];" vertex="1" connectable="0" parent="2qqS1FkIt9U3KMilBtJh-41">
          <mxGeometry x="0.2285" relative="1" as="geometry">
            <mxPoint as="offset" />
          </mxGeometry>
        </mxCell>
        <mxCell id="2qqS1FkIt9U3KMilBtJh-46" style="rounded=0;orthogonalLoop=1;jettySize=auto;html=1;entryX=0.767;entryY=0.925;entryDx=0;entryDy=0;entryPerimeter=0;dashed=1;" edge="1" parent="1" source="2qqS1FkIt9U3KMilBtJh-34" target="2qqS1FkIt9U3KMilBtJh-11">
          <mxGeometry relative="1" as="geometry" />
        </mxCell>
        <mxCell id="2qqS1FkIt9U3KMilBtJh-48" value="include" style="edgeLabel;html=1;align=center;verticalAlign=middle;resizable=0;points=[];" vertex="1" connectable="0" parent="2qqS1FkIt9U3KMilBtJh-46">
          <mxGeometry x="-0.1103" y="-5" relative="1" as="geometry">
            <mxPoint y="1" as="offset" />
          </mxGeometry>
        </mxCell>
      </root>
    </mxGraphModel>
  </diagram>
</mxfile>
